<?xml version="1.0" encoding="utf-8"?>
<!-- Generator: Adobe Illustrator 16.0.0, SVG Export Plug-In . SVG Version: 6.00 Build 0)  -->
<!DOCTYPE svg PUBLIC "-//W3C//DTD SVG 1.1//EN" "http://www.w3.org/Graphics/SVG/1.1/DTD/svg11.dtd">
<svg version="1.1" id="Layer_1" xmlns="http://www.w3.org/2000/svg" xmlns:xlink="http://www.w3.org/1999/xlink" x="0px" y="0px"
	 width="865.5px" height="1023.995px" viewBox="0 0 865.5 1023.995" enable-background="new 0 0 865.5 1023.995"
	 xml:space="preserve">
<path stroke="#FFFFFF" stroke-miterlimit="10" d="M648.237,193.254"/>
<path stroke="#FFFFFF" stroke-miterlimit="10" d="M648.237,193.254"/>
<path fill="#FFFFFF" d="M864.5,799.995v-48h-7v-373c0-151-61.92-245.95-76.58-266.424c-0.76-1.445-1.473-3.009-2.67-4.444
	C741.248,63.793,662.947-10.857,639.113,1.326c-16.256,8.308-5.092,96.865-2.508,152.813L344.316,295.851l-0.082-0.306l-0.126,0.407
	L136.88,397.285c-3.998-0.835-8.137-1.28-12.382-1.28c-33.275,0-61,26.975-61,60.25c0,17.186,7.001,32.678,18.001,43.655v424.085
	h-38c-24.024,0-43.5,19.476-43.5,43.5l0.021,57.5H247.5c0,0,0-58.082,0-58.25c0-14.353-5.454-26.75-16.172-33.75h263.35l30.654,92
	h56.006L462.875,660.453L372.29,382.122l306.151-149.109C701.931,252.972,822.5,379.917,830.5,388.977v363.018h-6v48h6v87h-6v77h6
	v61h27v-61h7v-77h-7v-87H864.5z M344,318.504c13.255,0,24,10.745,24,24s-10.745,24-24,24s-24-10.745-24-24
	S330.745,318.504,344,318.504z M140.5,915.685l-0.723,8.31H105.5V513.914c6,1.68,11.413,2.591,17.5,2.591s12.5-0.911,17.5-2.591
	V915.685z M124.5,493.504c-20.711,0-37.5-16.789-37.5-37.5s16.789-37.5,37.5-37.5s37.5,16.789,37.5,37.5
	S145.211,493.504,124.5,493.504z M164.5,499.909c8-7.105,13.859-16.109,16.919-26.232l123.889-59.884L224.687,659.27L164.5,842.095
	V499.909z M480.941,891.995H207.559l36.853-110h199.676L480.941,891.995z M430.352,740.995H258.147l38.863-116h94.479
	L430.352,740.995z M377.753,583.995h-67.006l33.503-100L377.753,583.995z M809,327.504c0,0-58-54.5-62-65.5c0,0-2-44.5,13-50.5
	c0,0,35-14,50.5,14l22.5,82.5C833,308.004,838.5,337.504,809,327.504z"/>
</svg>
